<?xml version="1.0" standalone="no"?>
<!DOCTYPE svg PUBLIC "-//W3C//DTD SVG 20010904//EN"
 "http://www.w3.org/TR/2001/REC-SVG-20010904/DTD/svg10.dtd">
<svg version="1.0" xmlns="http://www.w3.org/2000/svg"
 width="512.000000pt" height="512.000000pt" viewBox="0 0 512.000000 512.000000"
 preserveAspectRatio="xMidYMid meet">
<metadata>
Created by potrace 1.14, written by Peter Selinger 2001-2017
</metadata>
<g transform="translate(0.000000,512.000000) scale(0.100000,-0.100000)"
fill="#000000" stroke="none">
<path d="M414 5106 c-63 -28 -97 -102 -89 -192 8 -93 17 -199 21 -259 2 -33 6
-89 10 -125 3 -36 7 -94 10 -130 2 -35 6 -87 9 -115 2 -27 6 -90 10 -140 3
-49 8 -106 10 -125 3 -19 7 -78 10 -130 3 -52 8 -111 10 -130 2 -19 7 -73 10
-120 4 -47 8 -105 10 -130 4 -56 15 -189 20 -255 2 -27 6 -86 9 -130 3 -44 8
-105 11 -135 3 -30 7 -84 10 -120 5 -72 13 -165 20 -255 3 -33 7 -89 10 -125
10 -135 16 -216 20 -256 2 -23 7 -81 10 -130 9 -136 14 -194 20 -259 10 -111
14 -169 20 -255 3 -47 8 -103 10 -125 2 -22 7 -83 10 -135 3 -52 8 -108 10
-125 2 -16 6 -75 10 -130 3 -55 8 -113 10 -130 2 -16 7 -70 10 -120 11 -163
20 -194 69 -233 32 -24 42 -28 271 -101 367 -115 582 -183 795 -251 118 -38
310 -98 425 -135 116 -36 233 -74 260 -82 97 -32 93 -32 370 56 88 29 167 53
175 56 8 2 56 17 105 33 50 16 162 52 250 80 975 309 1019 323 1043 346 54 48
57 62 77 361 3 39 7 95 10 125 3 30 7 84 10 120 6 85 15 204 20 260 2 25 7 81
10 125 3 44 7 105 10 135 9 101 16 194 20 255 2 33 6 89 9 125 4 36 8 94 11
130 3 36 7 94 10 130 3 36 7 94 10 130 7 100 15 200 20 250 3 25 7 86 11 135
3 50 7 106 9 125 2 19 6 78 10 130 3 52 8 111 10 130 2 19 7 73 10 120 4 47 8
105 10 130 2 25 7 83 10 130 4 47 8 103 10 125 2 22 7 76 10 120 7 101 19 255
30 395 3 30 7 89 10 130 3 41 8 98 10 125 2 28 7 86 10 130 3 44 8 103 10 130
19 198 9 249 -56 296 l-34 24 -2125 2 c-1764 2 -2130 0 -2156 -11z m3570 -957
c-1 -39 -14 -216 -19 -269 -2 -19 -7 -80 -10 -135 -4 -55 -9 -103 -12 -107 -2
-5 -490 -8 -1084 -8 l-1079 0 6 -57 c3 -32 7 -69 9 -83 2 -14 7 -54 10 -90 3
-36 8 -83 11 -105 9 -74 13 -110 19 -175 4 -36 8 -69 8 -75 1 -7 355 -12 1027
-15 l1025 -5 -1 -30 c-1 -39 -14 -220 -18 -265 -2 -19 -7 -75 -11 -125 -3 -49
-8 -106 -10 -125 -2 -19 -6 -80 -10 -135 -3 -55 -8 -118 -10 -140 -3 -22 -7
-69 -9 -105 -6 -73 -16 -202 -21 -270 -2 -25 -7 -85 -10 -135 -4 -49 -8 -106
-10 -125 -6 -50 -18 -211 -19 -237 0 -20 -14 -27 -116 -58 -63 -20 -212 -67
-330 -105 -118 -38 -338 -108 -487 -155 l-273 -86 -147 46 c-82 25 -166 52
-188 60 -22 7 -119 38 -215 69 -328 103 -615 195 -635 203 -12 5 -21 18 -21
33 -1 14 -4 59 -8 100 -7 81 -13 157 -20 260 -12 154 -18 227 -21 255 -2 17
-7 81 -10 143 l-7 112 315 0 315 0 -1 -215 c0 -119 4 -220 9 -224 5 -5 99 -33
209 -61 110 -29 254 -68 319 -86 l119 -34 321 86 c177 48 324 89 328 93 8 7
15 64 22 166 11 153 18 252 21 285 2 19 6 83 10 143 l7 107 -1010 0 c-956 0
-1011 1 -1010 18 1 16 -8 147 -17 252 -2 25 -7 79 -10 120 -3 41 -8 102 -11
135 -7 82 -11 144 -19 250 -4 50 -9 108 -11 130 -2 22 -6 76 -9 120 -3 44 -8
105 -10 135 -2 30 -7 89 -10 130 -3 41 -8 95 -10 120 -3 41 -11 141 -19 260
l-3 45 1426 -1 1426 0 -1 -35z"/>
</g>
</svg>
